<?xml version="1.0" encoding="UTF-8"?>
<svg id="_レイヤー_1" data-name="レイヤー 1" xmlns="http://www.w3.org/2000/svg" viewBox="0 0 321.87 59.31">
  <defs>
    <style>
      .cls-1 {
        fill: #fff;
      }

      .cls-2 {
        fill: #b02024;
      }

      .cls-3 {
        fill: #b6322d;
      }

      .cls-4 {
        fill: #155e32;
      }
    </style>
  </defs>
  <path class="cls-1" d="M234.57,40.78h-18.51v5.94c0,.67,1.38,3.96,1.88,4.69,3.15,4.62,8.82,5.07,13.48,2.41.47-.27,3.91-3.55,3.58-1.77-.65,3.43-7.22,6.84-10.5,7.16-12.69,1.25-19.28-9.87-15.54-21.21,4.74-14.37,26.8-13.96,25.62,2.78ZM227.57,38.32c.09-11.26-10.23-10.32-11.11,0h11.11Z"/>
  <g>
    <path class="cls-1" d="M264.19,53.68c.07.4.92,2.17,1.25,2.47.61.55,1.21.2,1.42.3.3.13.66,1.31,2.27.72v1.23s-34.08-.07-34.08-.07l-.48-1.16c4.25.08,4.66-2.89,4.93-6.36.63-8.04.28-19.22.02-27.46-.04-1.46-.23-6.6-.64-7.55-.71-1.64-4.33-1.34-4.32-1.85-.07-.74.51-.83,1.05-1,3.28-1.03,7.09-1.53,10.34-2.81l1.14.72-.19,42.42c.39,3.42,1.48,2.85,3.81,3.91.34.16.28.82.52.82.19,0,3.13-1.29,3.46-1.48,1.66-.97,1.95-2.7,2.1-4.46.31-3.7.5-14.15-.11-17.53-.69-3.77-5.25-1.48-4.84-3.37.14-.62,10.78-3.04,12.34-3.49v26.02Z"/>
    <path class="cls-1" d="M260.39,17.12c5.67-.35,6.27,7.73.71,8.12-6.31.44-6.1-7.78-.71-8.12Z"/>
  </g>
  <g>
    <path class="cls-2" d="M169.15,56.34c2.23-.59,4.95-1.16,5.41-3.83l7.35-42.29c.12-1.65-1-3.04-2.48-3.66-1.79-.75-3.88.16-3.29-2.25h41.97l-2.55,12.42c-.42,1.12-1.94.61-2.8.69,1.37-11.97-12.06-10.09-20.1-10.19-1.23,7.48-3.04,14.93-3.76,22.48.15.2.53-.41.61-.41h8.23c2.08,0,5.45-2.75,6.79-4.3.96-1.11.71-2.69,2.88-2.25l-2.86,17.35c-.19.48-1.98.31-2.06.24-.17-.16-.45-3.35-1.08-4.45-2.42-4.23-9.26-3.25-13.32-3.29-.4,5.87-2.43,12.06-2.85,17.85-.14,2.01-.2,3.96,1.89,4.98,1.78.87,3.46.04,5.05.91-.8-.17-2,.12-2.88,0v.4s2.05,0,2.05,0v.41s-23.04,0-23.04,0v-.41s2.06,0,2.06,0c.15-.67-.6-.36-1.23-.41Z"/>
    <path class="cls-3" d="M169.15,56.34c.63.05,1.38-.27,1.23.41h-2.05s0,.41,0,.41h23.04v-.41s-2.06,0-2.06,0v-.4c.88.11,2.08-.18,2.88,0,.52.11,0,1.53-.06,1.58-.91.86-21.99-.54-25.04.05.09-2.24.97-1.35,2.06-1.64Z"/>
  </g>
  <path class="cls-4" d="M13.63,57.57c-.79-1.96,2.56-1.49,3.72-1.83,2.56-.74,2.93-2.46,3.5-4.71,3.1-12.37,4.07-26.19,6.77-38.74.48-3.2-1.25-5.14-4.52-4.71-.3-.68,1.17-1.64,1.44-1.64h16.25c.43,2.12-.63,1.45-1.63,2.26-3.07,2.5-3.12,9.2-3.85,12.97s-1.42,7.77-2.35,11.6c11.82,2.16,21.5-9.93,18.32-21.1C47.46-1.76,21.18,2.8,12.84,9.47c-7.5,6-10.83,20.63,1.2,23.12.11,1.3-1.7,1.53-2.67,1.63C-.09,35.41-2.43,23.72,2.31,15.37,9.7,2.33,30.14-.95,43.86.22c12.01,1.03,20.43,9.02,15.75,21.4-3.88,10.27-16.55,15.78-27.05,13.82l-2.88,17.78c.4,3.41,5.34,2.63,7.81,3.12l-.41,1.22H13.63Z"/>
  <g>
    <path class="cls-1" d="M321.79,40.78h-18.51v5.94c0,2.11,2.57,5.92,4.32,7.17,4.33,3.07,11.83,1.17,13.99-3.68,1.86,4.68-5.97,8.62-9.88,9.01-12.56,1.25-19.32-9.66-15.72-20.98,4.65-14.64,26.54-14.35,25.8,2.55ZM314.39,38.32c.01-11.51-9.75-9.85-11.11,0h11.11Z"/>
    <path class="cls-1" d="M288.15,36.58c-.83-1.18.09-4.32-2.27-5.73-2.58-1.55-4.73,0-6.16,2.24-2.51,3.93-2.78,12.93-.93,17.1,3.08,6.97,11.65,6.34,16.46,1.64.21,4.21-6.21,7.05-9.88,7.37-22.3,1.92-20.48-32.82.41-31.53,3.76.23,10.18,2.53,8.67,7.39-.74,2.37-5.09,3.24-6.3,1.52Z"/>
  </g>
  <g>
    <path class="cls-1" d="M80.14,54.14c2.84-1.8-.06-4.9,2.61-6.4.48,5.42,4.13,10.1,10.07,8.99,3.06-.57,4.55-4.55,2.63-7.09-2.9-3.84-12.77-4.6-13.83-10.81-1.86-10.89,10.06-12.23,18-10.35-.31,3.16,1.68,7.13-.62,9.83-.96-2.2-1.25-4.99-3.12-6.72-3.41-3.14-10.37-.91-8.83,3.87,1.68,5.2,17.91,5.87,15.17,16.29-1.63,6.17-9.13,7.9-14.68,7.4-3.63-.33-7.23-.79-6.02-5.27-.8.06-.53,1.36-.95,1.92-.09.12-2.13,1.79-2.37,1.94-3.62,2.3-9.06,2.3-9.85-2.64-2.33,1.61-4.67,3.67-7.64,4.06-9.67,1.26-11.11-8.57-4.66-13.65,1.97-1.55,4.64-2.61,6.53-3.31s5.16-1,5.39-2.85c.59-4.7-.97-11.11-7.03-8.63-2.77,1.13-1.01,2.86-.83,4.56.8,7.51-11.38,5.44-6.09-2.46,3.2-4.77,11.36-6.26,16.51-4.27,7.92,3.06,3.7,18.36,4.9,25.03,1.01,2.16,3.03,1.61,4.7.55ZM67.94,52.86c.66-2.39-.49-7.7,0-10.45-4.73.39-11.04,7.01-7.19,11.46,1.76,2.03,6.67.85,7.19-1.01Z"/>
    <path class="cls-1" d="M153.1,53.89c-.83,5.6-12.19,8.05-13.17,1.23-3.71,4.05-13.29,6.84-15.53.11-2.08-6.22,3.17-10.27,8.26-12.48,1.23-.53,6.52-1.82,6.79-2.05.67-.58.2-5.55-.02-6.59-.88-4.2-7.58-5.2-8.37-1.52-.3,1.39.79,2.2.67,3.88-.3,4.34-7.29,5.12-7.47,0-.29-8.51,17.33-12.01,21.52-5,2.4,4.01.65,14.62,1.13,19.77.66,6.99,5.76,2.2,6.19,2.65ZM139.53,42.82c-4.85.19-10.05,6.14-6.94,10.81,1.84,2.75,4.62.7,6.77-.12l.17-10.69Z"/>
    <path class="cls-1" d="M114.43,28.48h8.23v3.28h-8.23v21.1c0,.11.94,1.78,1.02,1.85.76.68,2.62.49,3.61.3,1.51-.29,2.62-1.52,4-1.95-.6,3.95-6.82,6.46-10.51,6.16-2.11-.17-5.53-1.96-5.53-4.32v-23.56l-4.52.41c-1.02-1.16,3.61-3.24,4.49-3.93.73-.57,1.71-1.51,2.3-2.21.92-1.1,2.94-5.31,3.48-5.56.46-.22,1.66.69,1.66.85v7.58Z"/>
  </g>
</svg>